<?xml version="1.0" encoding="utf-8"?>
<!-- Generator: Adobe Illustrator 18.0.0, SVG Export Plug-In . SVG Version: 6.00 Build 0)  -->
<!DOCTYPE svg PUBLIC "-//W3C//DTD SVG 1.1 Basic//EN" "http://www.w3.org/Graphics/SVG/1.1/DTD/svg11-basic.dtd">
<svg version="1.1" baseProfile="basic" id="Arrow_1_"
	 xmlns="http://www.w3.org/2000/svg" xmlns:xlink="http://www.w3.org/1999/xlink" x="0px" y="0px" width="500px" height="500px"
	 viewBox="0 0 500 500" xml:space="preserve">
  <metadata>
    <?xpacket begin="﻿" id="W5M0MpCehiHzreSzNTczkc9d"?>
    <x:xmpmeta xmlns:x="adobe:ns:meta/" x:xmptk="Adobe XMP Core 5.6-c011 79.156380, 2014/06/19-23:40:37        ">
     <rdf:RDF xmlns:rdf="http://www.w3.org/1999/02/22-rdf-syntax-ns#">
      <rdf:Description rdf:about=""
        xmlns:xmpMM="http://ns.adobe.com/xap/1.0/mm/"
        xmlns:stEvt="http://ns.adobe.com/xap/1.0/sType/ResourceEvent#"
        xmlns:xmp="http://ns.adobe.com/xap/1.0/"
        xmlns:xmpRights="http://ns.adobe.com/xap/1.0/rights/"
        xmlns:dc="http://purl.org/dc/elements/1.1/"
       xmpMM:DocumentID="xmp.did:515bd7397de06eab725d30a08d766f98"
       xmpMM:OriginalDocumentID="xmp.did:515bd7397de06eab725d30a08d766f98"
       xmpMM:InstanceID="xmp.iid:515bd7397de06eab725d30a08d766f98"
       xmp:ModifyDate="2015-04-14T15:00:04+02:00"
       xmp:MetadataDate="2015-04-14T15:00:04+02:00"
       xmpRights:Marked="True"
       xmpRights:WebStatement="http://www.adobe.com/legal/general-terms.html">
       <xmpMM:History>
        <rdf:Seq>
         <rdf:li
          stEvt:action="saved"
          stEvt:instanceID="xmp.iid:515bd7397de06eab725d30a08d766f98"
          stEvt:when="2015-04-14T15:00:04+02:00"/>
        </rdf:Seq>
       </xmpMM:History>
       <xmpRights:UsageTerms>
        <rdf:Alt>
         <rdf:li xml:lang="x-default">This work is licensed under the Adobe General Terms of Use http://www.adobe.com/legal/general-terms.html.</rdf:li>
        </rdf:Alt>
       </xmpRights:UsageTerms>
       <dc:publisher>
        <rdf:Bag>
         <rdf:li>Adobe Systems Incorporated</rdf:li>
        </rdf:Bag>
       </dc:publisher>
      </rdf:Description>
     </rdf:RDF>
    </x:xmpmeta>
    <?xpacket end="r"?>
  </metadata>
<path fill="#414042" d="M250,0C111.9,0,0,111.9,0,250c0,138.1,111.9,250,250,250s250-111.9,250-250S388.1,0,250,0z M187.2,362.6
	L187.2,362.6h-58.2V187.4h58.2V362.6z M158.1,163.5h-0.4c-19.5,0-32.2-13.5-32.2-30.3c0-17.2,13.1-30.3,33-30.3
	c20,0,32.2,13.1,32.6,30.3C191,150,178.4,163.5,158.1,163.5z M397.2,362.6H339v-93.8c0-23.6-8.4-39.6-29.5-39.6
	c-16.1,0-25.7,10.8-29.9,21.3c-1.5,3.7-1.9,9-1.9,14.2v97.9h-58.2c0,0,0.8-158.8,0-175.3h58.2v24.8c-0.1,0.2-0.3,0.4-0.4,0.6h0.4
	v-0.6c7.7-11.9,21.6-28.9,52.5-28.9c38.3,0,67.1,25,67.1,78.9V362.6z"/>
</svg>
